<svg xmlns="http://www.w3.org/2000/svg" width="40" height="39" viewBox="0 0 40 39" fill="none">
  <circle cx="21" cy="21" r="18" fill="#FF532E"/>
  <path d="M32.2569 9.93509C28.6467 9.93509 25.0056 9.50358 21.3734 9.50358C18.5542 9.50358 14.3073 8.99659 12.7912 11.9728C10.7253 16.028 9.6327 20.0532 9.60282 24.6543C9.58955 26.6986 9.16409 29.4896 10.9453 30.9591C12.8021 32.4909 15.524 33.0241 17.8494 33.3563C21.8905 33.9336 27.5226 33.9755 30.6508 30.9591C32.9087 28.7817 32.4918 25.5923 32.4727 22.7365C32.4412 18.0469 30.7633 14.0345 27.0788 11.0139C25.3636 9.60767 22.9306 8.02583 20.7381 7.48988C19.3169 7.14248 17.704 7.32432 16.2432 7.17824C13.1564 6.86956 9.99688 7.02604 7.39734 8.85632C5.97035 9.86104 4.25992 10.8262 3.46584 12.4522C2.5345 14.3592 2.07908 16.8255 2.05145 18.9248C2.01488 21.7047 1.56013 25.0772 2.30317 27.7707C2.78295 29.5099 4.30828 31.1782 5.55145 32.4214C6.79512 33.6651 8.12778 34.7139 9.7107 35.4899C10.7341 35.9916 11.8279 36.9421 12.983 37.0721C16.6208 37.4813 20.0417 37.1757 23.2672 35.4419C25.9258 34.0129 28.6846 32.7071 30.2672 29.9522C31.8905 27.1265 32.4451 24.3578 32.209 21.1303C32.0808 19.3779 31.5634 17.8693 30.8545 16.2878C29.9796 14.336 29.4299 12.2643 28.2415 10.4625C25.9349 6.96537 22.0561 4.48137 18.173 3.05495C15.9145 2.2253 12.8429 2.16797 10.4419 2.16797C8.04326 2.16797 7.60761 3.0933 6.89392 5.10461C5.62723 8.67438 5.5486 12.7713 5.73125 16.5156C6.01525 22.3377 12.181 27.2627 16.6148 30.12C19.0653 31.6992 21.6399 33.0634 24.4898 33.7758C26.5817 34.2988 28.8292 34.0995 30.9744 34.0995C35.0356 34.0995 37.0505 29.2464 37.5309 26.0207C37.8198 24.0809 37.6508 22.0303 37.6508 20.0755C37.6508 18.4952 37.8669 16.6603 37.1953 15.1731C35.9729 12.4664 35.1013 9.71029 32.7004 7.78954C31.6792 6.9726 30.1406 6.42933 28.9127 6.05153C27.3867 5.58198 25.917 5.79641 24.3819 5.51215C21.8707 5.0471 18.9456 4.96215 16.423 5.30838C15.045 5.49751 14.0288 6.20882 13.2706 7.34605" stroke="#1E1E1E" stroke-width="3" stroke-linecap="round"/>
</svg>