<svg xmlns="http://www.w3.org/2000/svg" width="42" height="42" viewBox="0 0 42 42" fill="none">
  <path d="M20.9999 26.2062C20.7666 26.2062 20.5408 26.1624 20.3227 26.0749C20.1033 25.9874 19.9207 25.8707 19.7749 25.7249L11.7249 17.6749C11.4041 17.3541 11.2437 16.9457 11.2437 16.4499C11.2437 15.9541 11.4041 15.5457 11.7249 15.2249C12.0457 14.9041 12.4541 14.7437 12.9499 14.7437C13.4457 14.7437 13.8541 14.9041 14.1749 15.2249L20.9999 22.0499L27.8249 15.2249C28.1457 14.9041 28.5541 14.7437 29.0499 14.7437C29.5457 14.7437 29.9541 14.9041 30.2749 15.2249C30.5957 15.5457 30.7562 15.9541 30.7562 16.4499C30.7562 16.9457 30.5957 17.3541 30.2749 17.6749L22.2249 25.7249C22.0499 25.8999 21.8603 26.0236 21.6562 26.0959C21.452 26.1694 21.2332 26.2062 20.9999 26.2062Z" fill="#CECECE"/>
</svg>