<svg width="67" height="67" viewBox="0 0 67 67" fill="none" xmlns="http://www.w3.org/2000/svg">
<circle cx="33.5" cy="33.5" r="33.5" fill="#FF8C4B"/>
<path d="M37.5317 37.3096C36.3897 38.2303 34.967 38.7324 33.5 38.7324C32.0331 38.7324 30.6103 38.2303 29.4684 37.3096C29.1195 37.0196 28.6697 36.8801 28.218 36.9218C27.7663 36.9634 27.3496 37.1828 27.0596 37.5317C26.7696 37.8805 26.6301 38.3303 26.6718 38.782C26.7134 39.2338 26.9328 39.6504 27.2817 39.9404C29.0265 41.397 31.2272 42.1948 33.5 42.1948C35.7729 42.1948 37.9736 41.397 39.7184 39.9404C40.0672 39.6504 40.2866 39.2338 40.3283 38.782C40.3699 38.3303 40.2304 37.8805 39.9404 37.5317C39.7969 37.3589 39.6207 37.2162 39.4219 37.1115C39.2232 37.0069 39.0057 36.9424 38.7821 36.9218C38.3303 36.8801 37.8806 37.0196 37.5317 37.3096ZM28.375 31.7917C28.7129 31.7917 29.0432 31.6915 29.3241 31.5038C29.6051 31.316 29.824 31.0492 29.9533 30.7371C30.0826 30.4249 30.1164 30.0814 30.0505 29.7501C29.9846 29.4187 29.8219 29.1143 29.583 28.8754C29.3441 28.6364 29.0397 28.4737 28.7083 28.4078C28.3769 28.3419 28.0334 28.3757 27.7213 28.505C27.4091 28.6343 27.1423 28.8533 26.9546 29.1342C26.7669 29.4152 26.6667 29.7455 26.6667 30.0833C26.6667 30.5364 26.8467 30.9709 27.167 31.2913C27.4874 31.6117 27.9219 31.7917 28.375 31.7917ZM38.625 28.375C38.2871 28.375 37.9569 28.4752 37.6759 28.6629C37.395 28.8506 37.176 29.1174 37.0467 29.4296C36.9174 29.7417 36.8836 30.0852 36.9495 30.4166C37.0154 30.748 37.1781 31.0524 37.417 31.2913C37.656 31.5302 37.9604 31.6929 38.2917 31.7588C38.6231 31.8248 38.9666 31.7909 39.2788 31.6616C39.5909 31.5323 39.8577 31.3134 40.0455 31.0324C40.2332 30.7515 40.3334 30.4212 40.3334 30.0833C40.3334 29.6303 40.1534 29.1957 39.833 28.8754C39.5126 28.555 39.0781 28.375 38.625 28.375Z" fill="black"/>
</svg>
