<svg width="67" height="67" viewBox="0 0 67 67" fill="none" xmlns="http://www.w3.org/2000/svg">
<circle cx="33.5" cy="33.5" r="33.5" fill="#F2D05B"/>
<path d="M30.4996 31.8005V31.8121C30.4996 33.2975 29.2957 34.5014 27.8103 34.5014H27.7987C27.0827 34.5014 26.3961 34.2169 25.8898 33.7107C25.3835 33.2044 25.0991 32.5178 25.0991 31.8018C25.0991 31.0858 25.3835 30.3992 25.8898 29.8929C26.3961 29.3866 27.0827 29.1022 27.7987 29.1022H27.8103C29.2957 29.1022 30.4996 30.306 30.4996 31.7914V31.8031V31.8005ZM42.0006 31.8005C42.0006 32.5165 41.7162 33.2031 41.2099 33.7094C40.7036 34.2156 40.017 34.5001 39.301 34.5001C38.585 34.5001 37.8984 34.2156 37.3921 33.7094C36.8858 33.2031 36.6014 32.5165 36.6014 31.8005V31.7889C36.6014 30.3034 37.8052 29.0996 39.2907 29.0996H39.3023C40.0135 29.1135 40.6917 29.402 41.1949 29.9047C41.6982 30.4075 41.9873 31.0854 42.0019 31.7966V31.7992L42.0006 31.8005ZM39.2002 41.1999H27.7005C27.5412 41.1999 27.3885 41.1367 27.2758 41.024C27.1632 40.9114 27.0999 40.7586 27.0999 40.5993C27.0999 40.44 27.1632 40.2873 27.2758 40.1746C27.3885 40.062 27.5412 39.9987 27.7005 39.9987H39.2002C39.3555 40.0092 39.5017 40.0756 39.6119 40.1855C39.722 40.2954 39.7887 40.4415 39.7996 40.5967V40.6239C39.7996 40.9416 39.5412 41.1999 39.2235 41.1999H39.1977H39.2002Z" fill="black"/>
<path d="M39.2003 41.6998H27.7006C27.4087 41.6998 27.1288 41.5838 26.9224 41.3775C26.716 41.1711 26.6001 40.8912 26.6001 40.5993C26.6001 40.3074 26.716 40.0275 26.9224 39.8211C27.1288 39.6147 27.4087 39.4988 27.7006 39.4988H39.2003C39.4922 39.4988 39.7721 39.6147 39.9785 39.8211C40.1849 40.0275 40.3008 40.3074 40.3008 40.5993C40.3008 40.8912 40.1849 41.1711 39.9785 41.3775C39.7721 41.5838 39.4922 41.6998 39.2003 41.6998ZM27.8001 40.4998C27.7006 40.4998 27.7006 40.5993 27.8001 40.4998C27.7742 40.5257 27.7574 40.5605 27.7574 40.5993C27.7574 40.638 27.7742 40.6742 27.8001 40.6987H39.2998C39.3261 40.6987 39.3514 40.6883 39.3701 40.6696C39.3887 40.651 39.3992 40.6257 39.3992 40.5993C39.3992 40.4998 39.3992 40.4998 39.2998 40.4998H27.8001Z" fill="black"/>
</svg>
