<svg width="67" height="67" viewBox="0 0 67 67" fill="none" xmlns="http://www.w3.org/2000/svg">
<circle cx="33.5" cy="33.5" r="33.5" fill="#A9B7C0"/>
<g clip-path="url(#clip0_31_236)">
<path fill-rule="evenodd" clip-rule="evenodd" d="M24.9585 29.2292C24.9585 28.5496 25.2285 27.8978 25.709 27.4173C26.1896 26.9367 26.8414 26.6667 27.521 26.6667C28.2006 26.6667 28.8524 26.9367 29.333 27.4173C29.8135 27.8978 30.0835 28.5496 30.0835 29.2292C30.0835 29.9089 29.8135 30.5606 29.333 31.0412C28.8524 31.5218 28.2006 31.7917 27.521 31.7917C26.8414 31.7917 26.1896 31.5218 25.709 31.0412C25.2285 30.5606 24.9585 29.9089 24.9585 29.2292ZM36.9168 29.2292C36.9168 28.5496 37.1868 27.8978 37.6674 27.4173C38.1479 26.9367 38.7997 26.6667 39.4793 26.6667C40.1589 26.6667 40.8107 26.9367 41.2913 27.4173C41.7719 27.8978 42.0418 28.5496 42.0418 29.2292C42.0418 29.9089 41.7719 30.5606 41.2913 31.0412C40.8107 31.5218 40.1589 31.7917 39.4793 31.7917C38.7997 31.7917 38.1479 31.5218 37.6674 31.0412C37.1868 30.5606 36.9168 29.9089 36.9168 29.2292ZM26.3252 38.1399C28.2393 36.2588 30.8164 35.2059 33.5002 35.2084C36.2933 35.2084 38.8285 36.3274 40.6752 38.1382C40.8391 38.2944 40.9703 38.4816 41.0612 38.6889C41.1522 38.8962 41.201 39.1196 41.2048 39.3459C41.2087 39.5723 41.1675 39.7972 41.0837 40.0075C40.9999 40.2178 40.8751 40.4093 40.7166 40.571C40.5581 40.7327 40.3691 40.8612 40.1605 40.9492C39.9519 41.0371 39.7279 41.0827 39.5015 41.0834C39.2751 41.084 39.0508 41.0396 38.8417 40.9528C38.6326 40.866 38.4429 40.7385 38.2835 40.5777C37.0077 39.3234 35.2893 38.622 33.5002 38.6251C31.6381 38.6251 29.952 39.3682 28.7168 40.5777C28.3919 40.8873 27.9581 41.0566 27.5093 41.049C27.0605 41.0413 26.6328 40.8573 26.3185 40.5368C26.0043 40.2163 25.8289 39.785 25.8301 39.3362C25.8313 38.8873 26.0092 38.4587 26.3252 38.1399Z" fill="black"/>
</g>
<defs>
<clipPath id="clip0_31_236">
<rect width="41" height="41" fill="white" transform="translate(13 13)"/>
</clipPath>
</defs>
</svg>
