<svg width="67" height="67" viewBox="0 0 67 67" fill="none" xmlns="http://www.w3.org/2000/svg">
<circle cx="33.5" cy="33.5" r="33.5" fill="#FF532E"/>
<path d="M27.7344 33.5C28.7958 33.5 29.6562 32.6395 29.6562 31.5781C29.6562 30.5167 28.7958 29.6562 27.7344 29.6562C26.673 29.6562 25.8125 30.5167 25.8125 31.5781C25.8125 32.6395 26.673 33.5 27.7344 33.5Z" fill="black"/>
<path d="M33.5042 43.7501C29.8671 43.7501 26.8081 41.3854 25.84 38.1582C25.8129 38.0622 25.8086 37.9611 25.8275 37.8632C25.8464 37.7652 25.8879 37.673 25.9487 37.5939C26.0095 37.5148 26.088 37.451 26.1778 37.4076C26.2677 37.3642 26.3664 37.3423 26.4662 37.3438H40.5351C40.6349 37.3423 40.7336 37.3642 40.8234 37.4076C40.9133 37.451 40.9917 37.5148 41.0526 37.5939C41.1134 37.673 41.1549 37.7652 41.1738 37.8632C41.1926 37.9611 41.1884 38.0622 41.1613 38.1582C40.2012 41.3854 37.1414 43.7501 33.5042 43.7501Z" fill="black"/>
<path d="M39.2656 33.5C40.327 33.5 41.1875 32.6395 41.1875 31.5781C41.1875 30.5167 40.327 29.6562 39.2656 29.6562C38.2042 29.6562 37.3438 30.5167 37.3438 31.5781C37.3438 32.6395 38.2042 33.5 39.2656 33.5Z" fill="black"/>
</svg>
