<svg width="67" height="67" viewBox="0 0 67 67" fill="none" xmlns="http://www.w3.org/2000/svg">
<circle cx="33.5" cy="33.5" r="33.5" fill="#E2E2E2"/>
<path d="M27.7344 33.5C28.7958 33.5 29.6562 32.6395 29.6562 31.5781C29.6562 30.5167 28.7958 29.6562 27.7344 29.6562C26.673 29.6562 25.8125 30.5167 25.8125 31.5781C25.8125 32.6395 26.673 33.5 27.7344 33.5Z" fill="black"/>
<path d="M33.5001 36.0625C37.1372 36.0625 40.1962 38.4272 41.1643 41.6544C41.1915 41.7507 41.1957 41.8521 41.1766 41.9504C41.1575 42.0487 41.1157 42.1411 41.0544 42.2203C40.9931 42.2995 40.9141 42.3632 40.8238 42.4064C40.7334 42.4495 40.6342 42.4709 40.5341 42.4688H26.4652C26.3654 42.4702 26.2667 42.4484 26.1768 42.405C26.087 42.3616 26.0085 42.2978 25.9477 42.2187C25.8869 42.1396 25.8454 42.0474 25.8265 41.9494C25.8076 41.8514 25.8119 41.7504 25.839 41.6544C26.7991 38.4272 29.8589 36.0625 33.5001 36.0625Z" fill="black"/>
<path d="M39.2656 33.5C40.327 33.5 41.1875 32.6395 41.1875 31.5781C41.1875 30.5167 40.327 29.6562 39.2656 29.6562C38.2042 29.6562 37.3438 30.5167 37.3438 31.5781C37.3438 32.6395 38.2042 33.5 39.2656 33.5Z" fill="black"/>
</svg>
